<svg width="24" height="24" viewBox="0 0 24 24" fill="none" xmlns="http://www.w3.org/2000/svg">
<g clip-path="url(#clip0)">
<path d="M12.0125 1.93573C9.25545 1.93573 7.01245 4.17873 7.01245 6.93573C7.01245 9.69273 9.25545 11.9357 12.0125 11.9357C14.7695 11.9357 17.0125 9.69273 17.0125 6.93573C17.0125 4.17873 14.7695 1.93573 12.0125 1.93573ZM12.0125 9.93573C10.3585 9.93573 9.01245 8.58973 9.01245 6.93573C9.01245 5.28173 10.3585 3.93573 12.0125 3.93573C13.6665 3.93573 15.0125 5.28173 15.0125 6.93573C15.0125 8.58973 13.6665 9.93573 12.0125 9.93573ZM21.0125 20.9357V19.9357C21.0125 16.0767 17.8715 12.9357 14.0125 12.9357H10.0125C6.15245 12.9357 3.01245 16.0767 3.01245 19.9357V20.9357H5.01245V19.9357C5.01245 17.1787 7.25545 14.9357 10.0125 14.9357H14.0125C16.7695 14.9357 19.0125 17.1787 19.0125 19.9357V20.9357H21.0125Z" fill="#222222"/>
</g>
<defs>
<clipPath id="clip0">
<rect width="24" height="24" fill="white"/>
</clipPath>
</defs>
</svg>
